<?xml version="1.0" standalone="no"?>
<!DOCTYPE svg PUBLIC "-//W3C//DTD SVG 20010904//EN"
 "http://www.w3.org/TR/2001/REC-SVG-20010904/DTD/svg10.dtd">
<svg version="1.0" xmlns="http://www.w3.org/2000/svg"
 width="897.000000pt" height="897.000000pt" viewBox="0 0 897.000000 897.000000"
 preserveAspectRatio="xMidYMid meet">
<metadata>
Created by potrace 1.11, written by Peter Selinger 2001-2013
</metadata>
<g transform="translate(0.000000,897.000000) scale(0.100000,-0.100000)"
fill="#000000" stroke="none">
<path d="M4295 8073 c-390 -23 -689 -72 -995 -164 -802 -240 -1364 -730 -1574
-1370 -146 -448 -115 -1019 76 -1404 141 -283 368 -503 708 -688 322 -174 868
-346 1620 -511 779 -171 1090 -261 1352 -391 236 -118 337 -222 368 -383 44
-224 -68 -402 -320 -507 -390 -164 -1095 -151 -1725 32 -281 81 -683 262 -974
438 -79 48 -150 89 -156 92 -13 4 -185 -226 -441 -592 -227 -323 -530 -782
-522 -791 2 -1 78 -40 168 -86 639 -324 1332 -545 2035 -647 256 -38 447 -52
760 -58 331 -6 534 3 805 38 1326 168 2160 825 2301 1814 29 207 5 603 -53
850 -21 91 -65 226 -77 235 -4 3 -28 43 -55 90 -130 229 -334 439 -586 602
-301 196 -697 359 -1224 503 -204 56 -333 86 -716 171 -1009 223 -1352 355
-1455 560 -28 55 -30 67 -30 170 0 107 1 112 37 186 81 163 277 296 523 353
316 73 835 20 1176 -119 12 -5 45 28 130 131 257 311 480 560 812 905 l208
217 -169 55 c-470 153 -936 237 -1467 266 -166 9 -420 11 -540 3z"/>
</g>
</svg>
